<?xml version="1.0" standalone="no"?>
<!DOCTYPE svg PUBLIC "-//W3C//DTD SVG 20010904//EN"
 "http://www.w3.org/TR/2001/REC-SVG-20010904/DTD/svg10.dtd">
<svg version="1.0" xmlns="http://www.w3.org/2000/svg"
 width="992.000000pt" height="992.000000pt" viewBox="0 0 992.000000 992.000000"
 preserveAspectRatio="xMidYMid meet">
<metadata>
Created by potrace 1.11, written by Peter Selinger 2001-2013
</metadata>
<g transform="translate(0.000000,992.000000) scale(0.100000,-0.100000)"
fill="#000000" stroke="none">
<path d="M7922 9819 c-26 -9 -72 -24 -102 -34 -30 -10 -80 -34 -110 -53 -67
-42 -513 -489 -1229 -1232 -34 -36 -149 -154 -254 -263 -106 -109 -235 -243
-288 -298 l-96 -100 -64 24 c-35 13 -91 30 -124 36 -78 16 -93 19 -115 26 -10
3 -27 7 -37 10 -10 2 -74 17 -143 35 -69 17 -143 34 -165 36 -97 10 -188 23
-240 34 -80 18 -228 23 -615 23 -370 -1 -540 -6 -558 -16 -4 -3 -25 -8 -47
-11 -22 -3 -62 -11 -90 -16 -27 -5 -66 -12 -85 -15 -43 -7 -251 -76 -317 -105
-130 -57 -254 -118 -311 -152 -34 -21 -65 -38 -68 -38 -7 0 -112 -79 -159
-120 -79 -69 -381 -372 -422 -423 -109 -137 -313 -470 -393 -642 -98 -212
-246 -662 -341 -1040 -34 -132 -63 -249 -65 -260 -2 -11 -8 -42 -14 -70 -5
-27 -12 -66 -15 -85 -3 -19 -17 -78 -30 -131 -14 -53 -27 -114 -31 -135 -3
-22 -10 -57 -14 -79 -5 -22 -17 -83 -28 -135 -11 -52 -23 -120 -26 -150 -6
-60 -23 -158 -30 -168 -2 -4 -7 -25 -10 -47 -4 -22 -11 -69 -17 -105 -8 -53
-33 -170 -55 -262 -2 -10 -6 -27 -9 -38 -2 -12 -27 -94 -56 -183 -123 -388
-200 -595 -354 -952 -40 -93 -98 -231 -130 -305 -72 -172 -268 -563 -328 -657
-26 -40 -67 -113 -92 -163 -25 -50 -88 -154 -140 -232 -100 -148 -115 -178
-93 -195 35 -28 132 -74 218 -103 52 -18 140 -51 195 -75 101 -43 151 -60 535
-190 219 -74 320 -105 400 -125 25 -6 74 -20 110 -30 260 -78 422 -119 530
-135 19 -3 105 -23 190 -45 85 -23 245 -61 355 -86 110 -24 247 -55 305 -69
58 -13 130 -26 160 -29 58 -5 139 -20 199 -36 20 -5 52 -12 71 -15 19 -3 42
-8 50 -10 8 -2 41 -7 73 -10 32 -4 68 -8 80 -11 12 -2 60 -11 107 -19 82 -14
112 -17 285 -31 44 -3 121 -15 170 -25 84 -17 146 -18 905 -14 770 4 918 7
979 19 39 8 80 14 141 20 53 6 84 9 180 21 25 3 72 12 105 20 33 7 79 16 102
20 91 13 195 61 230 105 18 22 16 58 -4 68 -18 10 -61 18 -143 28 -172 20
-382 102 -520 203 -220 161 -414 374 -528 582 -64 116 -131 322 -147 449 -7
58 -7 401 -1 432 3 12 8 34 10 48 23 143 142 424 244 579 50 75 292 314 388
383 115 82 236 153 291 171 115 37 179 52 268 63 28 4 84 16 125 28 109 32
179 32 306 1 59 -14 121 -28 138 -30 103 -10 155 -27 306 -96 206 -94 282
-147 435 -303 135 -137 232 -272 318 -441 40 -80 62 -138 112 -295 24 -73 31
-155 29 -336 -2 -154 -5 -185 -33 -300 -44 -181 -75 -268 -124 -350 -23 -40
-62 -106 -87 -149 -25 -42 -60 -97 -78 -121 -37 -50 -67 -126 -58 -149 12 -31
70 -8 205 81 400 263 668 544 912 954 41 69 79 134 86 145 29 48 123 254 163
355 129 326 219 607 265 828 3 12 7 30 10 40 13 51 46 229 50 274 3 29 15 95
26 148 32 152 33 163 33 410 0 210 -8 372 -19 391 -3 3 -6 21 -9 40 -10 76
-114 427 -170 572 -32 85 -129 268 -214 406 -195 317 -387 569 -614 806 -21
22 -38 42 -38 45 1 9 143 158 640 669 461 474 529 550 572 636 63 126 88 246
83 410 -4 129 -9 158 -40 247 -47 130 -81 178 -261 367 -51 53 -115 121 -144
151 -426 447 -920 944 -974 980 -132 89 -306 143 -442 138 -47 -1 -106 -10
-132 -19z"/>
</g>
</svg>
